<svg version="1.1" id="Layer_1" xmlns="http://www.w3.org/2000/svg" xmlns:xlink="http://www.w3.org/1999/xlink" x="0px" y="0px"
	 width="100%" viewBox="0 0 800 151" enable-background="new 0 0 800 151" xml:space="preserve">
<path fill="#FFFFFF" opacity="1.000000" stroke="none" 
	d="
M532.000000,152.000000 
	C354.713135,152.000000 177.926270,152.000000 1.069707,152.000000 
	C1.069707,101.726448 1.069707,51.452774 1.069707,1.089548 
	C267.666656,1.089548 534.333313,1.089548 800.964600,1.089548 
	C800.964600,51.407036 800.964600,101.703537 800.964600,152.000000 
	C711.452759,152.000000 621.976379,152.000000 532.000000,152.000000 
M6.023742,55.780621 
	C6.068531,56.863556 6.113319,57.946491 6.011166,59.952778 
	C6.011166,87.217133 6.011166,114.481483 6.011166,141.761215 
	C181.182251,141.761215 355.828491,141.761215 531.088806,141.761215 
	C524.405396,139.163254 520.561218,135.180359 520.085266,129.556458 
	C519.295959,120.229210 523.431824,113.022919 531.082642,107.296379 
	C521.514954,104.968597 517.300354,98.599213 517.028503,89.365967 
	C516.871643,84.037827 517.000000,78.701302 517.000000,73.368546 
	C517.000000,66.279839 517.000000,59.191128 517.000000,52.338310 
	C522.414062,52.338310 527.155334,52.338310 532.000000,52.338310 
	C532.000000,64.666634 531.955078,76.657181 532.019409,88.647141 
	C532.050415,94.417816 534.538940,97.561722 539.123901,97.999107 
	C545.841919,98.639969 549.746887,96.174568 550.973694,90.306793 
	C551.501343,87.783058 551.926392,85.186874 551.954529,82.618752 
	C552.065430,72.511009 552.000000,62.401344 552.000000,52.248627 
	C556.899780,52.248627 561.305481,52.248627 566.000000,52.248627 
	C566.000000,72.794792 566.053284,93.093918 565.980774,113.392593 
	C565.934387,126.375099 561.966736,137.057907 547.681946,141.752167 
	C630.895752,141.752167 713.299316,141.752167 795.749573,141.752167 
	C795.749573,131.430450 795.749573,121.358231 795.749573,110.890472 
	C791.094971,110.890472 786.677124,110.890472 782.000000,110.890472 
	C782.000000,101.192482 782.105530,91.888710 781.954956,82.589088 
	C781.880981,78.015450 781.481079,73.432404 780.957214,68.884888 
	C780.430359,64.311234 777.079041,61.725792 772.529602,62.000271 
	C767.463196,62.305950 763.102356,67.269318 763.023865,73.090286 
	C762.924927,80.421486 763.000000,87.755043 763.000000,95.087578 
	C763.000000,100.346619 763.000000,105.605667 763.000000,110.677063 
	C757.615967,110.677063 752.877441,110.677063 748.000000,110.677063 
	C748.000000,97.368500 748.053528,84.382118 747.978333,71.396484 
	C747.938293,64.484642 744.274231,61.163689 737.920532,62.001099 
	C733.780518,62.546749 730.048828,67.234505 730.019409,72.208794 
	C729.956299,82.873924 730.000000,93.539696 730.000000,104.205200 
	C730.000000,106.453705 730.000000,108.702217 730.000000,110.634933 
	C724.529419,110.634933 719.785278,110.634933 714.532837,110.634933 
	C714.532837,90.929573 714.532837,71.589584 714.544067,52.243595 
	C726.566528,51.418804 726.566528,51.418804 727.512451,57.582195 
	C737.247925,47.292316 751.618958,46.936600 760.686951,57.965160 
	C765.654663,51.549866 772.372742,49.221470 780.199524,50.036491 
	C787.971313,50.845795 793.545288,54.684551 795.698730,63.654652 
	C795.698730,43.697742 795.698730,24.941574 795.698730,6.000001 
	C793.916687,6.000001 792.434937,6.000001 790.953186,6.000001 
	C557.811829,6.000001 324.670502,5.999721 91.529167,6.006187 
	C90.032829,6.006229 88.536491,6.099885 86.275658,6.024088 
	C85.503593,6.066674 84.731522,6.109260 83.036713,6.010716 
	C57.389004,6.010716 31.741295,6.010716 6.160054,6.010716 
	C6.160054,22.788219 6.160054,38.882553 6.023742,55.780621 
M550.685364,122.842339 
	C551.262268,117.079903 551.839172,111.317474 552.416077,105.555038 
	C551.967896,105.262123 551.519653,104.969215 551.071472,104.676300 
	C546.854492,107.804207 542.310913,110.590729 538.546265,114.191544 
	C536.381958,116.261665 534.985352,119.508972 534.131165,122.481537 
	C533.006042,126.396667 535.549927,130.476227 538.676392,130.994354 
	C545.103821,132.059525 548.537964,129.783340 550.685364,122.842339 
z"/>
<path fill="#000000" opacity="1.000000" stroke="none" 
	d="
M87.040146,6.149828 
	C88.536491,6.099885 90.032829,6.006229 91.529167,6.006187 
	C324.670502,5.999721 557.811829,6.000001 790.953186,6.000001 
	C792.434937,6.000001 793.916687,6.000001 795.698730,6.000001 
	C795.698730,24.941574 795.698730,43.697742 795.698730,63.654652 
	C793.545288,54.684551 787.971313,50.845795 780.199524,50.036491 
	C772.372742,49.221470 765.654663,51.549866 760.686951,57.965160 
	C751.618958,46.936600 737.247925,47.292316 727.512451,57.582195 
	C726.566528,51.418804 726.566528,51.418804 714.538452,52.246597 
	C714.532837,71.589584 714.532837,90.929573 714.532837,110.634933 
	C719.785278,110.634933 724.529419,110.634933 730.000000,110.634933 
	C730.000000,108.702217 730.000000,106.453705 730.000000,104.205200 
	C730.000000,93.539696 729.956299,82.873924 730.019409,72.208794 
	C730.048828,67.234505 733.780518,62.546749 737.920532,62.001099 
	C744.274231,61.163689 747.938293,64.484642 747.978333,71.396484 
	C748.053528,84.382118 748.000000,97.368500 748.000000,110.677063 
	C752.877441,110.677063 757.615967,110.677063 763.000000,110.677063 
	C763.000000,105.605667 763.000000,100.346619 763.000000,95.087578 
	C763.000000,87.755043 762.924927,80.421486 763.023865,73.090286 
	C763.102356,67.269318 767.463196,62.305950 772.529602,62.000271 
	C777.079041,61.725792 780.430359,64.311234 780.957214,68.884888 
	C781.481079,73.432404 781.880981,78.015450 781.954956,82.589088 
	C782.105530,91.888710 782.000000,101.192482 782.000000,110.890472 
	C786.677124,110.890472 791.094971,110.890472 795.749573,110.890472 
	C795.749573,121.358231 795.749573,131.430450 795.749573,141.752167 
	C713.299316,141.752167 630.895752,141.752167 547.681946,141.752167 
	C561.966736,137.057907 565.934387,126.375099 565.980774,113.392593 
	C566.053284,93.093918 566.000000,72.794792 566.000000,52.248627 
	C561.305481,52.248627 556.899780,52.248627 552.000000,52.248627 
	C552.000000,62.401344 552.065430,72.511009 551.954529,82.618752 
	C551.926392,85.186874 551.501343,87.783058 550.973694,90.306793 
	C549.746887,96.174568 545.841919,98.639969 539.123901,97.999107 
	C534.538940,97.561722 532.050415,94.417816 532.019409,88.647141 
	C531.955078,76.657181 532.000000,64.666634 532.000000,52.338310 
	C527.155334,52.338310 522.414062,52.338310 517.000000,52.338310 
	C517.000000,59.191128 517.000000,66.279839 517.000000,73.368546 
	C517.000000,78.701302 516.871643,84.037827 517.028503,89.365967 
	C517.300354,98.599213 521.514954,104.968597 531.082642,107.296379 
	C523.431824,113.022919 519.295959,120.229210 520.085266,129.556458 
	C520.561218,135.180359 524.405396,139.163254 531.088806,141.761215 
	C355.828491,141.761215 181.182251,141.761215 6.011166,141.761215 
	C6.011166,114.481483 6.011166,87.217133 6.393526,59.635750 
	C10.500834,65.913872 14.225784,72.509026 17.979294,79.437256 
	C19.088457,81.309654 20.169060,82.848969 21.257591,84.736816 
	C21.808945,86.075325 22.352369,87.065292 22.942364,88.348900 
	C23.287064,89.110931 23.585192,89.579330 23.943193,90.388336 
	C24.990377,91.521294 25.977688,92.313652 26.984169,93.419662 
	C27.055677,94.148506 27.108015,94.563698 27.112261,95.289413 
	C27.364311,96.106575 27.664457,96.613220 27.986462,97.405640 
	C28.299574,98.147202 28.590826,98.603012 28.933739,99.349091 
	C29.292192,100.108467 29.598986,100.577568 29.954590,101.339020 
	C30.312300,102.104095 30.621202,102.576828 30.967823,103.343658 
	C31.320087,104.108620 31.634630,104.579468 31.996277,105.393364 
	C33.142677,107.595795 34.241970,109.455193 35.430622,111.465729 
	C35.943352,110.474014 36.297894,109.788277 36.901657,109.401825 
	C39.099022,110.078735 41.047165,110.456352 43.391136,110.907639 
	C44.856277,110.931664 45.925598,110.882011 47.366516,110.905220 
	C48.490932,110.930023 49.243755,110.881966 50.367966,110.905884 
	C51.491535,110.930092 52.243710,110.882317 53.381767,110.905807 
	C58.112778,109.940506 57.063580,105.968758 58.380051,102.918915 
	C59.842659,99.169762 60.976162,95.606865 62.428123,91.863358 
	C63.534538,89.136391 64.322495,86.590019 65.399246,83.901321 
	C65.808289,82.209602 65.928535,80.660225 66.413086,79.054123 
	C67.535812,77.366623 68.294235,75.735840 69.368111,73.929230 
	C70.492477,71.517441 71.301384,69.281487 72.420273,66.866333 
	C73.523430,64.473358 74.316605,62.259583 75.418411,59.870617 
	C76.521126,57.478992 77.315186,55.262562 78.410332,52.879017 
	C79.509987,50.823315 80.308556,48.934723 81.401085,46.886398 
	C82.165947,45.500050 82.636841,44.273430 83.398293,42.889256 
	C84.143761,41.522385 84.598671,40.313072 85.347214,38.943192 
	C86.445107,37.222767 87.249359,35.662910 88.354561,33.931080 
	C89.788338,31.540251 90.921165,29.321392 92.359924,26.922039 
	C93.488937,25.334267 94.406822,23.973143 95.118271,22.511534 
	C97.860062,16.878757 96.871429,13.232396 91.915817,10.605239 
	C90.537544,9.507843 89.295891,8.703444 87.965660,7.655807 
	C87.598106,6.991655 87.319130,6.570743 87.040146,6.149828 
M271.996155,30.715443 
	C271.234467,30.144203 270.491455,29.110708 269.708008,29.079126 
	C265.600677,28.913551 261.483154,29.001722 257.001740,29.001722 
	C257.001740,30.030066 257.001740,30.651169 257.001740,31.272272 
	C257.001740,57.041660 257.001740,82.811050 257.001740,108.303619 
	C265.872559,112.602615 275.042786,113.653610 284.364532,112.926720 
	C292.977966,112.255058 300.156830,109.047043 304.153381,100.486641 
	C308.698303,90.751694 309.597260,80.847656 308.145081,70.245041 
	C306.563660,58.699097 297.783051,49.802811 286.194092,50.105892 
	C281.506592,50.228477 276.849915,51.529160 271.999756,52.323112 
	C271.999756,45.635826 271.999756,38.658810 271.996155,30.715443 
M412.391998,102.915344 
	C419.228424,115.815315 439.083801,115.943520 447.761932,106.452759 
	C449.264923,111.667946 451.256073,112.238045 461.000000,110.642403 
	C461.000000,102.087608 461.000000,93.690628 461.000000,85.293655 
	C461.000000,76.299316 460.896759,67.303131 461.057892,58.311684 
	C461.111786,55.303936 460.565552,53.460094 457.171539,52.914299 
	C453.221161,52.279030 449.397614,50.639561 445.443176,50.287178 
	C435.556610,49.406174 426.336090,50.432606 417.960632,57.253429 
	C407.734650,65.581276 406.536591,91.687912 412.391998,102.915344 
M227.172577,110.985878 
	C229.385956,109.448738 231.599319,107.911598 233.901794,106.312584 
	C233.994354,107.935028 234.075653,109.359879 234.155121,110.752762 
	C238.549866,110.752762 242.644119,110.752762 247.012589,110.752762 
	C246.666290,103.950493 246.137024,97.409569 246.043762,90.862442 
	C245.884872,79.708336 246.077713,68.549126 245.905823,57.395405 
	C245.883240,55.928776 244.776657,53.362690 243.845398,53.202244 
	C236.178421,51.881313 228.401169,50.021366 220.722672,50.278145 
	C213.055557,50.534542 205.826874,53.383141 200.877289,60.399963 
	C193.697937,70.577805 193.467499,81.540619 194.812164,93.391991 
	C196.793747,110.857033 214.406662,116.609001 227.172577,110.985878 
M654.000000,85.353554 
	C654.332031,87.758430 654.722229,90.156921 654.987000,92.569183 
	C657.324341,113.868988 681.051941,116.898758 694.132751,109.528694 
	C708.899170,101.208977 709.988281,77.136505 704.776184,63.546791 
	C701.476135,54.942490 694.232544,50.892860 685.570984,50.128944 
	C675.058533,49.201790 665.480530,51.570366 658.972839,61.055897 
	C654.080383,68.187088 653.605469,76.178757 654.000000,85.353554 
M82.000000,83.434967 
	C82.000000,84.767281 81.897011,86.108917 82.016685,87.430389 
	C82.810051,96.190704 85.176598,104.257317 92.992340,109.443298 
	C98.076996,112.817123 103.933090,112.919426 109.862511,113.087631 
	C120.454674,113.388123 130.497192,104.366035 133.021362,96.151337 
	C135.270523,88.831604 135.793472,81.457397 135.116302,73.780952 
	C134.196915,63.358597 130.273010,55.092178 120.007378,51.654152 
	C109.635674,48.180599 99.443588,49.126686 90.854424,56.713127 
	C83.121292,63.543461 81.431366,72.670959 82.000000,83.434967 
M351.000000,80.463982 
	C350.999969,82.796989 351.043243,85.130974 350.990662,87.462791 
	C350.891663,91.854050 349.478882,95.544174 346.042389,98.607338 
	C342.766144,101.527695 338.645782,102.050140 335.525574,100.491501 
	C333.251373,99.355461 332.104889,95.377350 331.123901,92.442841 
	C330.472473,90.494179 331.000000,88.151337 331.000000,85.984940 
	C330.999969,74.722069 331.000000,63.459190 331.000000,52.296211 
	C325.669586,52.296211 320.930420,52.296211 316.000519,52.296211 
	C316.000519,67.236763 315.636292,81.894890 316.155151,96.521683 
	C316.412170,103.767159 319.870178,110.163261 328.111053,112.104393 
	C336.894257,114.173264 344.823608,113.227631 351.666687,106.893913 
	C351.969147,106.613976 352.461639,106.539391 352.921692,106.345543 
	C352.995972,107.944954 353.062347,109.373817 353.125275,110.728516 
	C357.585724,110.728516 361.673401,110.728516 365.727051,110.728516 
	C365.727051,91.051430 365.727051,71.647011 365.727051,52.276699 
	C360.709900,52.276699 355.970734,52.276699 351.000000,52.276699 
	C351.000000,61.525707 351.000000,70.500023 351.000000,80.463982 
M642.619324,96.041718 
	C640.470947,97.144318 638.338806,98.280136 636.171204,99.343506 
	C628.751160,102.983467 619.154663,101.086777 616.414734,90.680443 
	C615.227783,86.172447 614.734680,81.230316 615.179016,76.605751 
	C615.781189,70.339890 618.270935,64.466316 625.105957,62.476799 
	C630.384644,60.940311 634.337585,63.865273 638.071045,67.362480 
	C638.971191,68.205627 641.626709,68.215225 642.810120,67.503136 
	C645.435303,65.923492 647.638977,63.643398 649.928650,61.720985 
	C645.946899,54.990860 639.767883,51.708706 632.667175,50.342972 
	C621.467773,48.188885 607.319824,53.507217 602.810852,66.242126 
	C600.331726,73.244286 599.476807,80.258965 600.132202,87.385948 
	C600.766846,94.288002 602.689148,101.198891 607.841248,106.201012 
	C617.667297,115.741081 638.979858,115.561127 648.771851,105.590088 
	C646.978577,102.408714 645.185303,99.227341 642.619324,96.041718 
M181.247086,97.976898 
	C180.522537,98.317795 179.779770,98.624939 179.076202,99.004707 
	C170.406723,103.684341 159.133133,100.294861 157.641846,89.066528 
	C156.972687,84.028259 156.473755,78.738228 157.272476,73.784111 
	C158.723145,64.786354 167.255386,59.706837 174.252777,63.190517 
	C177.095108,64.605583 179.442276,67.015213 182.461166,69.311928 
	C184.685715,67.341484 186.740829,64.881577 189.349655,63.390293 
	C191.954132,61.901505 191.131989,60.907017 189.832306,59.308960 
	C180.205109,47.471638 161.468887,46.747688 150.698013,56.895557 
	C140.279434,66.711494 141.117386,79.477020 142.670410,92.096962 
	C143.366074,97.749870 145.920609,102.806549 150.277695,106.792625 
	C160.397751,116.050934 178.332275,114.278732 188.845856,107.410629 
	C189.522018,106.968918 189.597137,103.948067 188.914307,103.384796 
	C186.512283,101.403336 187.809082,96.213287 182.979889,96.572342 
	C182.604660,96.600243 182.274902,97.239616 181.247086,97.976898 
M392.412201,98.924828 
	C391.941467,96.729111 391.073944,94.535538 391.062042,92.337334 
	C390.955658,72.674545 391.004822,53.010944 390.989929,33.347595 
	C390.988861,31.924175 390.844391,30.500862 390.781250,29.345989 
	C385.568634,29.345989 380.828766,29.345989 376.000000,29.345989 
	C376.000000,52.681614 375.763885,75.675041 376.119202,98.659332 
	C376.256409,107.535950 379.485504,111.390030 387.122772,112.726654 
	C394.063873,113.941429 401.525421,113.821373 407.960236,109.351746 
	C406.812897,105.928711 405.654144,102.471611 405.032043,100.615570 
	C400.468658,100.201401 396.741638,99.863152 392.412201,98.924828 
M485.989227,56.112915 
	C485.500824,54.795116 485.012421,53.477314 484.567566,52.276997 
	C480.423706,52.276997 476.397644,52.276997 473.519104,52.276997 
	C473.519104,71.993935 473.519104,91.440750 473.519104,110.670570 
	C479.066895,110.670570 483.471039,110.670570 489.000488,110.670570 
	C489.000488,97.295052 488.820892,84.246651 489.093567,71.207695 
	C489.195099,66.353699 493.381134,62.876877 498.315735,63.085136 
	C501.434662,63.216770 504.518677,64.175270 507.611908,64.761673 
	C508.407715,60.671127 509.200378,56.596653 509.981476,52.581734 
	C499.763458,47.767326 493.777588,49.074097 486.854645,57.449989 
	C486.832336,57.476982 486.302429,57.084457 485.989227,56.112915 
M584.493164,96.000275 
	C583.570984,96.244255 582.661743,96.569199 581.724487,96.718254 
	C577.593933,97.375137 576.441833,100.176361 575.926880,103.914680 
	C575.335876,108.205154 577.311829,111.535332 580.701904,112.624512 
	C583.758545,113.606590 587.664307,114.176804 590.749573,110.850594 
	C595.842407,105.360023 593.604675,98.883316 584.493164,96.000275 
z"/>
<path fill="#000000" opacity="1.000000" stroke="none" 
	d="
M6.160054,54.976883 
	C6.160054,38.882553 6.160054,22.788219 6.160054,6.010716 
	C31.741295,6.010716 57.389004,6.010716 83.419823,6.336573 
	C83.499138,7.091571 83.195335,7.520712 82.618652,8.087768 
	C81.881729,9.114313 81.417694,10.002943 80.675125,11.032190 
	C79.919090,12.075638 79.441597,12.978467 78.664291,14.047625 
	C77.542320,15.790865 76.720169,17.367779 75.590942,19.088703 
	C74.488457,20.803427 73.693047,22.374146 72.589996,24.088207 
	C71.487511,25.802891 70.692650,27.374229 69.589424,29.088118 
	C68.484322,30.804094 67.687599,32.377522 66.596710,34.104843 
	C65.852081,35.470154 65.401619,36.681572 64.650970,38.049492 
	C63.884129,39.435619 63.417461,40.665241 62.642738,42.059875 
	C61.542881,44.112053 60.751080,45.999214 59.642422,48.060699 
	C58.200737,51.121014 57.075912,54.007004 55.631126,57.069206 
	C54.170681,60.147480 53.030197,63.049541 51.570232,66.132790 
	C50.463444,68.860420 49.676140,71.406853 48.570156,74.126816 
	C47.484886,76.831535 46.718292,79.362732 45.625351,82.070221 
	C43.903008,83.856575 44.964802,87.658546 41.023945,86.643738 
	C40.689835,85.146118 40.376148,84.022003 40.028229,82.600098 
	C39.683594,81.834923 39.373188,81.367523 39.030067,80.600830 
	C38.685196,79.835175 38.373039,79.368805 38.025341,78.580246 
	C37.604435,77.503029 37.219063,76.747993 36.780022,75.664299 
	C35.521557,73.542862 34.316769,71.750084 33.050858,69.595932 
	C29.148626,61.851536 25.307514,54.468513 21.491308,47.133366 
	C16.246433,49.816658 11.203243,52.396770 6.160054,54.976883 
z"/>
<path fill="#68AB1D" opacity="1.000000" stroke="none" 
	d="
M6.091898,55.378754 
	C11.203243,52.396770 16.246433,49.816658 21.491308,47.133366 
	C25.307514,54.468513 29.148626,61.851536 32.725525,69.733353 
	C27.624454,73.189491 22.787594,76.146835 17.950733,79.104179 
	C14.225784,72.509026 10.500834,65.913872 6.466996,59.174072 
	C6.113319,57.946491 6.068531,56.863556 6.091898,55.378754 
z"/>
<path fill="#000000" opacity="1.000000" stroke="none" 
	d="
M550.385254,123.137444 
	C548.537964,129.783340 545.103821,132.059525 538.676392,130.994354 
	C535.549927,130.476227 533.006042,126.396667 534.131165,122.481537 
	C534.985352,119.508972 536.381958,116.261665 538.546265,114.191544 
	C542.310913,110.590729 546.854492,107.804207 551.071472,104.676300 
	C551.519653,104.969215 551.967896,105.262123 552.416077,105.555038 
	C551.839172,111.317474 551.262268,117.079903 550.385254,123.137444 
z"/>
<path fill="#79B439" opacity="1.000000" stroke="none" 
	d="
M82.891541,7.949852 
	C83.195335,7.520712 83.499138,7.091571 83.881195,6.407138 
	C84.731522,6.109260 85.503593,6.066674 86.657898,6.086959 
	C87.319130,6.570743 87.598106,6.991655 87.794388,8.046052 
	C87.825668,17.154039 87.939644,25.628546 88.053619,34.103050 
	C87.249359,35.662910 86.445107,37.222767 85.176544,38.552635 
	C84.474930,30.067003 84.294495,21.809040 83.957191,13.557488 
	C83.880310,11.676898 83.261124,9.818476 82.891541,7.949852 
z"/>
<path fill="#FFFFFF" opacity="1.000000" stroke="none" 
	d="
M271.997955,31.198620 
	C271.999756,38.658810 271.999756,45.635826 271.999756,52.323112 
	C276.849915,51.529160 281.506592,50.228477 286.194092,50.105892 
	C297.783051,49.802811 306.563660,58.699097 308.145081,70.245041 
	C309.597260,80.847656 308.698303,90.751694 304.153381,100.486641 
	C300.156830,109.047043 292.977966,112.255058 284.364532,112.926720 
	C275.042786,113.653610 265.872559,112.602615 257.001740,108.303619 
	C257.001740,82.811050 257.001740,57.041660 257.001740,31.272272 
	C257.001740,30.651169 257.001740,30.030066 257.001740,29.001722 
	C261.483154,29.001722 265.600677,28.913551 269.708008,29.079126 
	C270.491455,29.110708 271.234467,30.144203 271.997955,31.198620 
M293.998322,85.141014 
	C293.998840,82.809921 294.174774,80.462914 293.964996,78.150909 
	C293.461609,72.602661 292.490906,67.173935 287.847260,63.327564 
	C284.524750,60.575512 280.555603,60.009418 277.070343,62.183292 
	C274.869598,63.555973 272.361847,66.437119 272.227081,68.770744 
	C271.680786,78.230087 271.954498,87.739929 272.059113,97.229668 
	C272.071930,98.391426 272.574005,100.193756 273.388885,100.590195 
	C277.152863,102.421349 285.424164,103.545128 287.933746,99.399559 
	C290.445282,95.250717 292.000732,90.523094 293.998322,85.141014 
z"/>
<path fill="#FFFFFF" opacity="1.000000" stroke="none" 
	d="
M412.206421,102.572762 
	C406.536591,91.687912 407.734650,65.581276 417.960632,57.253429 
	C426.336090,50.432606 435.556610,49.406174 445.443176,50.287178 
	C449.397614,50.639561 453.221161,52.279030 457.171539,52.914299 
	C460.565552,53.460094 461.111786,55.303936 461.057892,58.311684 
	C460.896759,67.303131 461.000000,76.299316 461.000000,85.293655 
	C461.000000,93.690628 461.000000,102.087608 461.000000,110.642403 
	C451.256073,112.238045 449.264923,111.667946 447.761932,106.452759 
	C439.083801,115.943520 419.228424,115.815315 412.206421,102.572762 
M442.448975,99.030739 
	C443.632477,96.974258 445.751099,94.956291 445.837677,92.854645 
	C446.214294,83.710571 446.073273,74.540771 445.904633,65.384293 
	C445.883789,64.252464 444.792816,62.440426 443.822906,62.135403 
	C435.132538,59.402424 428.190430,62.120430 425.369843,70.345940 
	C422.830109,77.752388 422.706329,85.348518 424.487732,93.251907 
	C426.180206,100.760773 435.456024,104.769806 442.448975,99.030739 
z"/>
<path fill="#FFFFFF" opacity="1.000000" stroke="none" 
	d="
M226.777969,111.049126 
	C214.406662,116.609001 196.793747,110.857033 194.812164,93.391991 
	C193.467499,81.540619 193.697937,70.577805 200.877289,60.399963 
	C205.826874,53.383141 213.055557,50.534542 220.722672,50.278145 
	C228.401169,50.021366 236.178421,51.881313 243.845398,53.202244 
	C244.776657,53.362690 245.883240,55.928776 245.905823,57.395405 
	C246.077713,68.549126 245.884872,79.708336 246.043762,90.862442 
	C246.137024,97.409569 246.666290,103.950493 247.012589,110.752762 
	C242.644119,110.752762 238.549866,110.752762 234.155121,110.752762 
	C234.075653,109.359879 233.994354,107.935028 233.901794,106.312584 
	C231.599319,107.911598 229.385956,109.448738 226.777969,111.049126 
M209.000000,80.686218 
	C209.337524,85.073273 209.321564,89.524529 210.103775,93.830811 
	C211.040619,98.988434 217.206024,102.787964 222.423019,101.993317 
	C227.989822,101.145409 230.992340,97.475616 230.997681,91.475029 
	C231.006256,81.845909 231.000000,72.216782 231.000000,61.918552 
	C227.573685,61.765106 224.093002,60.844135 221.040192,61.615810 
	C211.842117,63.940861 210.575180,69.374878 209.000000,80.686218 
z"/>
<path fill="#FFFFFF" opacity="1.000000" stroke="none" 
	d="
M654.000000,84.873978 
	C653.605469,76.178757 654.080383,68.187088 658.972839,61.055897 
	C665.480530,51.570366 675.058533,49.201790 685.570984,50.128944 
	C694.232544,50.892860 701.476135,54.942490 704.776184,63.546791 
	C709.988281,77.136505 708.899170,101.208977 694.132751,109.528694 
	C681.051941,116.898758 657.324341,113.868988 654.987000,92.569183 
	C654.722229,90.156921 654.332031,87.758430 654.000000,84.873978 
M673.469299,65.019920 
	C672.619019,66.525360 671.586121,67.957710 670.949158,69.548553 
	C667.722107,77.607590 668.632629,85.666504 670.900208,93.795067 
	C672.227112,98.551422 675.321777,101.490089 679.900269,101.845825 
	C684.604553,102.211342 688.421204,99.658516 689.960938,94.996994 
	C693.050476,85.643875 693.511047,76.130486 689.403015,66.996552 
	C686.325073,60.152958 679.642761,59.283970 673.469299,65.019920 
z"/>
<path fill="#FFFFFF" opacity="1.000000" stroke="none" 
	d="
M82.000000,82.951942 
	C81.431366,72.670959 83.121292,63.543461 90.854424,56.713127 
	C99.443588,49.126686 109.635674,48.180599 120.007378,51.654152 
	C130.273010,55.092178 134.196915,63.358597 135.116302,73.780952 
	C135.793472,81.457397 135.270523,88.831604 133.021362,96.151337 
	C130.497192,104.366035 120.454674,113.388123 109.862511,113.087631 
	C103.933090,112.919426 98.076996,112.817123 92.992340,109.443298 
	C85.176598,104.257317 82.810051,96.190704 82.016685,87.430389 
	C81.897011,86.108917 82.000000,84.767281 82.000000,82.951942 
M97.321220,74.154160 
	C97.580055,80.189262 97.453529,86.273552 98.215492,92.244446 
	C98.865044,97.334427 103.888542,101.742874 108.066910,101.998985 
	C112.080643,102.245010 117.509018,98.913010 118.287582,93.981659 
	C119.386414,87.021751 119.321442,79.821564 119.151680,72.738533 
	C119.044968,68.286163 117.163803,64.226997 112.807655,62.026089 
	C106.060829,58.617294 97.720535,65.764999 97.321220,74.154160 
z"/>
<path fill="#FFFFFF" opacity="1.000000" stroke="none" 
	d="
M351.000000,79.969162 
	C351.000000,70.500023 351.000000,61.525707 351.000000,52.276699 
	C355.970734,52.276699 360.709900,52.276699 365.727051,52.276699 
	C365.727051,71.647011 365.727051,91.051430 365.727051,110.728516 
	C361.673401,110.728516 357.585724,110.728516 353.125275,110.728516 
	C353.062347,109.373817 352.995972,107.944954 352.921692,106.345543 
	C352.461639,106.539391 351.969147,106.613976 351.666687,106.893913 
	C344.823608,113.227631 336.894257,114.173264 328.111053,112.104393 
	C319.870178,110.163261 316.412170,103.767159 316.155151,96.521683 
	C315.636292,81.894890 316.000519,67.236763 316.000519,52.296211 
	C320.930420,52.296211 325.669586,52.296211 331.000000,52.296211 
	C331.000000,63.459190 330.999969,74.722069 331.000000,85.984940 
	C331.000000,88.151337 330.472473,90.494179 331.123901,92.442841 
	C332.104889,95.377350 333.251373,99.355461 335.525574,100.491501 
	C338.645782,102.050140 342.766144,101.527695 346.042389,98.607338 
	C349.478882,95.544174 350.891663,91.854050 350.990662,87.462791 
	C351.043243,85.130974 350.999969,82.796989 351.000000,79.969162 
z"/>
<path fill="#FFFFFF" opacity="1.000000" stroke="none" 
	d="
M643.005676,96.043839 
	C645.185303,99.227341 646.978577,102.408714 648.776245,105.587662 
	C638.979858,115.561127 617.667297,115.741081 607.841248,106.201012 
	C602.689148,101.198891 600.766846,94.288002 600.132202,87.385948 
	C599.476807,80.258965 600.331726,73.244286 602.810852,66.242126 
	C607.319824,53.507217 621.467773,48.188885 632.667175,50.342972 
	C639.767883,51.708706 645.946899,54.990860 649.928650,61.720985 
	C647.638977,63.643398 645.435303,65.923492 642.810120,67.503136 
	C641.626709,68.215225 638.971191,68.205627 638.071045,67.362480 
	C634.337585,63.865273 630.384644,60.940311 625.105957,62.476799 
	C618.270935,64.466316 615.781189,70.339890 615.179016,76.605751 
	C614.734680,81.230316 615.227783,86.172447 616.414734,90.680443 
	C619.154663,101.086777 628.751160,102.983467 636.171204,99.343506 
	C638.338806,98.280136 640.470947,97.144318 643.005676,96.043839 
z"/>
<path fill="#FFFFFF" opacity="1.000000" stroke="none" 
	d="
M181.585541,97.785843 
	C182.274902,97.239616 182.604660,96.600243 182.979889,96.572342 
	C187.809082,96.213287 186.512283,101.403336 188.914307,103.384796 
	C189.597137,103.948067 189.522018,106.968918 188.845856,107.410629 
	C178.332275,114.278732 160.397751,116.050934 150.277695,106.792625 
	C145.920609,102.806549 143.366074,97.749870 142.670410,92.096962 
	C141.117386,79.477020 140.279434,66.711494 150.698013,56.895557 
	C161.468887,46.747688 180.205109,47.471638 189.832306,59.308960 
	C191.131989,60.907017 191.954132,61.901505 189.349655,63.390293 
	C186.740829,64.881577 184.685715,67.341484 182.461166,69.311928 
	C179.442276,67.015213 177.095108,64.605583 174.252777,63.190517 
	C167.255386,59.706837 158.723145,64.786354 157.272476,73.784111 
	C156.473755,78.738228 156.972687,84.028259 157.641846,89.066528 
	C159.133133,100.294861 170.406723,103.684341 179.076202,99.004707 
	C179.779770,98.624939 180.522537,98.317795 181.585541,97.785843 
z"/>
<path fill="#FFFFFF" opacity="1.000000" stroke="none" 
	d="
M392.713440,99.224861 
	C396.741638,99.863152 400.468658,100.201401 405.032043,100.615570 
	C405.654144,102.471611 406.812897,105.928711 407.960236,109.351746 
	C401.525421,113.821373 394.063873,113.941429 387.122772,112.726654 
	C379.485504,111.390030 376.256409,107.535950 376.119202,98.659332 
	C375.763885,75.675041 376.000000,52.681614 376.000000,29.345989 
	C380.828766,29.345989 385.568634,29.345989 390.781250,29.345989 
	C390.844391,30.500862 390.988861,31.924175 390.989929,33.347595 
	C391.004822,53.010944 390.955658,72.674545 391.062042,92.337334 
	C391.073944,94.535538 391.941467,96.729111 392.713440,99.224861 
z"/>
<path fill="#FFFFFF" opacity="1.000000" stroke="none" 
	d="
M485.999390,56.500385 
	C486.302429,57.084457 486.832336,57.476982 486.854645,57.449989 
	C493.777588,49.074097 499.763458,47.767326 509.981476,52.581734 
	C509.200378,56.596653 508.407715,60.671127 507.611908,64.761673 
	C504.518677,64.175270 501.434662,63.216770 498.315735,63.085136 
	C493.381134,62.876877 489.195099,66.353699 489.093567,71.207695 
	C488.820892,84.246651 489.000488,97.295052 489.000488,110.670570 
	C483.471039,110.670570 479.066895,110.670570 473.519104,110.670570 
	C473.519104,91.440750 473.519104,71.993935 473.519104,52.276997 
	C476.397644,52.276997 480.423706,52.276997 484.567566,52.276997 
	C485.012421,53.477314 485.500824,54.795116 485.999390,56.500385 
z"/>
<path fill="#FFFFFF" opacity="1.000000" stroke="none" 
	d="
M584.907227,96.001106 
	C593.604675,98.883316 595.842407,105.360023 590.749573,110.850594 
	C587.664307,114.176804 583.758545,113.606590 580.701904,112.624512 
	C577.311829,111.535332 575.335876,108.205154 575.926880,103.914680 
	C576.441833,100.176361 577.593933,97.375137 581.724487,96.718254 
	C582.661743,96.569199 583.570984,96.244255 584.907227,96.001106 
z"/>
<path fill="#9CC779" opacity="1.000000" stroke="none" 
	d="
M51.889713,65.951599 
	C53.030197,63.049541 54.170681,60.147480 55.799923,57.460312 
	C56.525787,59.456871 56.958260,61.237457 56.968182,63.020393 
	C57.030907,74.292053 56.947212,85.564705 57.047401,96.835823 
	C57.066006,98.928406 57.700634,101.015526 58.050949,103.105164 
	C57.063580,105.968758 58.112778,109.940506 53.383167,110.448059 
	C52.999210,96.966621 53.040462,84.013924 52.951065,71.062126 
	C52.939293,69.356255 52.259899,67.654991 51.889713,65.951599 
z"/>
<path fill="#97C471" opacity="1.000000" stroke="none" 
	d="
M58.380051,102.918915 
	C57.700634,101.015526 57.066006,98.928406 57.047401,96.835823 
	C56.947212,85.564705 57.030907,74.292053 56.968182,63.020393 
	C56.958260,61.237457 56.525787,59.456871 56.119888,57.284096 
	C57.075912,54.007004 58.200737,51.121014 59.701889,48.483475 
	C60.385368,50.843193 60.939888,52.952347 60.957981,55.066093 
	C61.048912,65.688934 60.950802,76.313423 61.049393,86.936134 
	C61.065224,88.641869 61.739681,90.341507 62.109673,92.043961 
	C60.976162,95.606865 59.842659,99.169762 58.380051,102.918915 
z"/>
<path fill="#93C26A" opacity="1.000000" stroke="none" 
	d="
M62.428123,91.863358 
	C61.739681,90.341507 61.065224,88.641869 61.049393,86.936134 
	C60.950802,76.313423 61.048912,65.688934 60.957981,55.066093 
	C60.939888,52.952347 60.385368,50.843193 60.018745,48.309151 
	C60.751080,45.999214 61.542881,44.112053 62.811813,42.450806 
	C63.525909,44.462341 63.956497,46.246735 63.967869,48.033791 
	C64.033424,58.333027 63.949486,68.633377 64.049652,78.932060 
	C64.066254,80.639198 64.740250,82.339943 65.110451,84.043648 
	C64.322495,86.590019 63.534538,89.136391 62.428123,91.863358 
z"/>
<path fill="#8BBE5B" opacity="1.000000" stroke="none" 
	d="
M66.890869,33.950947 
	C67.687599,32.377522 68.484322,30.804094 69.903534,29.374058 
	C70.684006,40.151093 70.792595,50.785915 71.046188,61.417282 
	C71.091125,63.300758 71.740204,65.169823 72.110298,67.045540 
	C71.301384,69.281487 70.492477,71.517441 69.198051,73.538574 
	C68.475044,71.538422 68.044792,69.754448 68.032204,67.967522 
	C67.964294,58.333363 68.053482,48.697903 67.950096,39.064369 
	C67.931763,37.356304 67.260582,35.655243 66.890869,33.950947 
z"/>
<path fill="#A0C980" opacity="1.000000" stroke="none" 
	d="
M51.570232,66.132790 
	C52.259899,67.654991 52.939293,69.356255 52.951065,71.062126 
	C53.040462,84.013924 52.999210,96.966621 52.997284,110.376801 
	C52.243710,110.882317 51.491535,110.930092 50.369095,110.448135 
	C49.999264,99.631607 50.050102,89.344307 49.950298,79.058472 
	C49.933758,77.353470 49.259270,75.654861 48.888836,73.953293 
	C49.676140,71.406853 50.463444,68.860420 51.570232,66.132790 
z"/>
<path fill="#88BC55" opacity="1.000000" stroke="none" 
	d="
M72.420273,66.866333 
	C71.740204,65.169823 71.091125,63.300758 71.046188,61.417282 
	C70.792595,50.785915 70.684006,40.151093 70.211899,29.231506 
	C70.692650,27.374229 71.487511,25.802891 72.904129,24.374252 
	C73.683929,34.650681 73.794334,44.785591 74.046227,54.916988 
	C74.088921,56.634342 74.739853,58.336582 75.109772,60.045807 
	C74.316605,62.259583 73.523430,64.473358 72.420273,66.866333 
z"/>
<path fill="#62A31D" opacity="1.000000" stroke="none" 
	d="
M17.979294,79.437256 
	C22.787594,76.146835 27.624454,73.189491 32.786648,70.094727 
	C34.316769,71.750084 35.521557,73.542862 36.440266,75.711426 
	C31.186012,78.854248 26.217836,81.621262 21.249662,84.388283 
	C20.169060,82.848969 19.088457,81.309654 17.979294,79.437256 
z"/>
<path fill="#84BA4F" opacity="1.000000" stroke="none" 
	d="
M75.418419,59.870617 
	C74.739853,58.336582 74.088921,56.634342 74.046227,54.916988 
	C73.794334,44.785591 73.683929,34.650681 73.211761,24.230907 
	C73.693047,22.374146 74.488457,20.803427 75.904999,19.374866 
	C76.684090,28.984104 76.791687,38.452538 77.046104,47.917027 
	C77.092285,49.635010 77.739502,51.336842 78.109253,53.046127 
	C77.315186,55.262562 76.521126,57.478992 75.418419,59.870617 
z"/>
<path fill="#81B948" opacity="1.000000" stroke="none" 
	d="
M78.410332,52.879017 
	C77.739502,51.336842 77.092285,49.635010 77.046104,47.917027 
	C76.791687,38.452538 76.684090,28.984104 76.212074,19.230858 
	C76.720169,17.367779 77.542320,15.790865 78.722198,14.471254 
	C79.386513,23.634501 79.641716,32.542747 80.041138,41.444530 
	C80.125465,43.323891 80.737991,45.179554 81.107132,47.046135 
	C80.308556,48.934723 79.509987,50.823315 78.410332,52.879017 
z"/>
<path fill="#A7CD8E" opacity="1.000000" stroke="none" 
	d="
M41.044369,87.017235 
	C44.964802,87.658546 43.903008,83.856575 45.793938,82.461243 
	C46.524220,92.061432 46.759567,101.446892 46.994915,110.832359 
	C45.925598,110.882011 44.856277,110.931664 43.392677,110.450668 
	C42.527012,104.334671 42.055626,98.749321 41.714859,92.916855 
	C41.846180,92.114983 41.846889,91.560211 41.996700,90.710968 
	C41.803974,89.592377 41.462143,88.768257 41.086121,87.713669 
	C41.051933,87.483185 41.044369,87.017235 41.044369,87.017235 
z"/>
<path fill="#A3CB87" opacity="1.000000" stroke="none" 
	d="
M47.366516,110.905220 
	C46.759567,101.446892 46.524220,92.061432 46.120285,82.284943 
	C46.718292,79.362732 47.484886,76.831535 48.570156,74.126816 
	C49.259270,75.654861 49.933758,77.353470 49.950298,79.058472 
	C50.050102,89.344307 49.999264,99.631607 49.997704,110.376160 
	C49.243755,110.881966 48.490932,110.930023 47.366516,110.905220 
z"/>
<path fill="#75B232" opacity="1.000000" stroke="none" 
	d="
M88.354568,33.931080 
	C87.939644,25.628546 87.825668,17.154039 87.882965,8.289289 
	C89.295891,8.703444 90.537544,9.507843 91.745911,10.993874 
	C91.826408,16.817848 91.940201,21.960192 92.053993,27.102533 
	C90.921165,29.321392 89.788338,31.540251 88.354568,33.931080 
z"/>
<path fill="#8EBF60" opacity="1.000000" stroke="none" 
	d="
M66.596710,34.104843 
	C67.260582,35.655243 67.931763,37.356304 67.950096,39.064369 
	C68.053482,48.697903 67.964294,58.333363 68.032204,67.967522 
	C68.044792,69.754448 68.475044,71.538422 68.882591,73.714417 
	C68.294235,75.735840 67.535812,77.366623 66.398308,78.578232 
	C66.012817,66.836639 66.058937,55.513725 65.952858,44.192238 
	C65.933151,42.089542 65.300766,39.992588 64.951149,37.892986 
	C65.401619,36.681572 65.852081,35.470154 66.596710,34.104843 
z"/>
<path fill="#90C164" opacity="1.000000" stroke="none" 
	d="
M64.650970,38.049492 
	C65.300766,39.992588 65.933151,42.089542 65.952858,44.192238 
	C66.058937,55.513725 66.012817,66.836639 66.033997,78.634949 
	C65.928535,80.660225 65.808289,82.209602 65.399246,83.901321 
	C64.740250,82.339943 64.066254,80.639198 64.049652,78.932060 
	C63.949486,68.633377 64.033424,58.333027 63.967869,48.033791 
	C63.956497,46.246735 63.525909,44.462341 63.119873,42.285793 
	C63.417461,40.665241 63.884129,39.435619 64.650970,38.049492 
z"/>
<path fill="#7EB743" opacity="1.000000" stroke="none" 
	d="
M81.401093,46.886402 
	C80.737991,45.179554 80.125465,43.323891 80.041138,41.444530 
	C79.641716,32.542747 79.386513,23.634501 79.022003,14.304928 
	C79.441597,12.978467 79.919090,12.075638 80.843307,11.423963 
	C81.526680,20.263662 81.708038,28.854368 82.043297,37.439064 
	C82.116722,39.319302 82.738487,41.178123 83.107735,43.046810 
	C82.636841,44.273430 82.165947,45.500050 81.401093,46.886402 
z"/>
<path fill="#7CB63F" opacity="1.000000" stroke="none" 
	d="
M83.398293,42.889256 
	C82.738487,41.178123 82.116722,39.319302 82.043297,37.439064 
	C81.708038,28.854368 81.526680,20.263662 81.121841,11.283344 
	C81.417694,10.002943 81.881729,9.114313 82.618652,8.087766 
	C83.261124,9.818476 83.880310,11.676898 83.957191,13.557488 
	C84.294495,21.809040 84.474930,30.067003 84.882919,38.713196 
	C84.598671,40.313072 84.143761,41.522385 83.398293,42.889256 
z"/>
<path fill="#ACCF96" opacity="1.000000" stroke="none" 
	d="
M41.584244,93.163963 
	C42.055626,98.749321 42.527012,104.334671 42.996849,110.376999 
	C41.047165,110.456352 39.099022,110.078735 36.879986,109.004318 
	C37.021481,106.541809 37.433872,104.776093 38.000690,102.686813 
	C38.471985,101.249496 38.788853,100.135750 39.397129,98.852791 
	C39.829792,97.802078 39.971050,96.920570 40.386604,95.895416 
	C40.726028,95.156006 40.791157,94.560242 41.013138,93.741501 
	C41.308075,93.400330 41.446159,93.282150 41.584244,93.163963 
z"/>
<path fill="#5A9B1C" opacity="1.000000" stroke="none" 
	d="
M21.257591,84.736816 
	C26.217836,81.621262 31.186012,78.854248 36.493942,76.040100 
	C37.219063,76.747993 37.604435,77.503029 37.828838,78.866211 
	C32.743847,82.334671 27.819822,85.194969 22.895796,88.055267 
	C22.352369,87.065292 21.808945,86.075325 21.257591,84.736816 
z"/>
<path fill="#70B02A" opacity="1.000000" stroke="none" 
	d="
M92.359924,26.922039 
	C91.940201,21.960192 91.826408,16.817848 91.882530,11.286871 
	C96.871429,13.232396 97.860062,16.878757 95.118271,22.511534 
	C94.406822,23.973143 93.488937,25.334267 92.359924,26.922039 
z"/>
<path fill="#336E1B" opacity="1.000000" stroke="none" 
	d="
M41.714859,92.916855 
	C41.446159,93.282150 41.308075,93.400330 40.731590,93.774551 
	C39.862125,94.353928 39.431061,94.677269 38.702431,95.022018 
	C37.937084,95.362892 37.469303,95.682365 36.649658,96.056442 
	C33.825886,97.093643 31.353983,98.076233 28.882080,99.058815 
	C28.590826,98.603012 28.299574,98.147202 28.000332,97.054291 
	C27.998766,95.949768 28.005188,95.482361 28.269030,94.905380 
	C29.017986,94.531349 29.509521,94.266891 30.320526,93.979843 
	C31.427490,93.639893 32.214985,93.322533 33.387871,92.999115 
	C36.464706,92.330513 39.156151,91.667976 41.847595,91.005447 
	C41.846889,91.560211 41.846180,92.114983 41.714859,92.916855 
z"/>
<path fill="#49871B" opacity="1.000000" stroke="none" 
	d="
M30.001053,94.002441 
	C29.509521,94.266891 29.017986,94.531349 28.056145,94.896240 
	C27.585840,94.996681 27.160353,94.978897 27.160355,94.978897 
	C27.108015,94.563698 27.055677,94.148506 27.028149,93.059967 
	C28.082176,91.399414 29.004562,90.258606 30.160980,89.454285 
	C33.409870,87.194626 36.755180,85.073593 40.062462,82.897888 
	C40.376148,84.022003 40.689835,85.146118 41.023945,86.643738 
	C41.044369,87.017235 41.051933,87.483185 40.724953,87.732185 
	C39.265091,88.320488 38.132210,88.659790 36.645416,89.004013 
	C35.527035,89.671814 34.762554,90.334686 33.999039,90.998779 
	C34.000000,91.000000 33.998009,90.997986 33.633789,91.002319 
	C32.180061,92.005249 31.090557,93.003845 30.001053,94.002441 
z"/>
<path fill="#54941C" opacity="1.000000" stroke="none" 
	d="
M22.942368,88.348900 
	C27.819822,85.194969 32.743847,82.334671 37.864376,79.188408 
	C38.373039,79.368805 38.685196,79.835175 38.835815,80.886475 
	C33.743958,84.330185 28.813641,87.188957 23.883320,90.047729 
	C23.585192,89.579330 23.287064,89.110931 22.942368,88.348900 
z"/>
<path fill="#508F1C" opacity="1.000000" stroke="none" 
	d="
M23.943195,90.388336 
	C28.813641,87.188957 33.743958,84.330185 38.868530,81.185776 
	C39.373188,81.367523 39.683594,81.834923 40.028229,82.600098 
	C36.755180,85.073593 33.409870,87.194626 30.160980,89.454285 
	C29.004562,90.258606 28.082176,91.399414 27.008976,92.746315 
	C25.977688,92.313652 24.990377,91.521294 23.943195,90.388336 
z"/>
<path fill="#013418" opacity="1.000000" stroke="none" 
	d="
M37.846260,103.010376 
	C37.433872,104.776093 37.021481,106.541809 36.630764,108.705032 
	C36.297894,109.788277 35.943352,110.474014 35.430622,111.465729 
	C34.241970,109.455193 33.142677,107.595795 32.317661,105.246002 
	C34.343380,104.173859 36.094822,103.592117 37.846260,103.010376 
z"/>
<path fill="#134919" opacity="1.000000" stroke="none" 
	d="
M38.000694,102.686813 
	C36.094822,103.592117 34.343380,104.173859 32.270554,104.902962 
	C31.634630,104.579468 31.320087,104.108620 31.274775,103.206131 
	C32.364532,101.851173 33.185059,100.927864 34.210678,99.743271 
	C35.275269,99.318573 36.134773,99.155159 37.346191,98.996422 
	C38.167316,99.008064 38.636517,99.015030 39.105721,99.022003 
	C38.788853,100.135750 38.471985,101.249496 38.000694,102.686813 
z"/>
<path fill="#28611A" opacity="1.000000" stroke="none" 
	d="
M36.994278,98.991745 
	C36.134773,99.155159 35.275269,99.318573 33.857796,99.774246 
	C32.168476,100.393227 31.037127,100.719948 29.905779,101.046677 
	C29.598986,100.577568 29.292192,100.108467 28.933739,99.349091 
	C31.353983,98.076233 33.825886,97.093643 36.649506,96.430252 
	C36.998909,97.496872 36.996593,98.244308 36.994278,98.991745 
z"/>
<path fill="#20571A" opacity="1.000000" stroke="none" 
	d="
M29.954590,101.339020 
	C31.037127,100.719948 32.168476,100.393227 33.652702,100.035522 
	C33.185059,100.927864 32.364532,101.851173 31.237053,102.912025 
	C30.621202,102.576828 30.312300,102.104095 29.954590,101.339020 
z"/>
<path fill="#3D791B" opacity="1.000000" stroke="none" 
	d="
M27.112259,95.289413 
	C27.160353,94.978897 27.585840,94.996681 27.798725,95.005814 
	C28.005188,95.482361 27.998766,95.949768 27.978474,96.768524 
	C27.664457,96.613220 27.364311,96.106575 27.112259,95.289413 
z"/>
<path fill="#000000" opacity="1.000000" stroke="none" 
	d="
M293.986786,85.595093 
	C292.000732,90.523094 290.445282,95.250717 287.933746,99.399559 
	C285.424164,103.545128 277.152863,102.421349 273.388885,100.590195 
	C272.574005,100.193756 272.071930,98.391426 272.059113,97.229668 
	C271.954498,87.739929 271.680786,78.230087 272.227081,68.770744 
	C272.361847,66.437119 274.869598,63.555973 277.070343,62.183292 
	C280.555603,60.009418 284.524750,60.575512 287.847260,63.327564 
	C292.490906,67.173935 293.461609,72.602661 293.964996,78.150909 
	C294.174774,80.462914 293.998840,82.809921 293.986786,85.595093 
z"/>
<path fill="#000000" opacity="1.000000" stroke="none" 
	d="
M442.183716,99.326515 
	C435.456024,104.769806 426.180206,100.760773 424.487732,93.251907 
	C422.706329,85.348518 422.830109,77.752388 425.369843,70.345940 
	C428.190430,62.120430 435.132538,59.402424 443.822906,62.135403 
	C444.792816,62.440426 445.883789,64.252464 445.904633,65.384293 
	C446.073273,74.540771 446.214294,83.710571 445.837677,92.854645 
	C445.751099,94.956291 443.632477,96.974258 442.183716,99.326515 
z"/>
<path fill="#000000" opacity="1.000000" stroke="none" 
	d="
M209.000000,80.220589 
	C210.575180,69.374878 211.842117,63.940861 221.040192,61.615810 
	C224.093002,60.844135 227.573685,61.765106 231.000000,61.918552 
	C231.000000,72.216782 231.006256,81.845909 230.997681,91.475029 
	C230.992340,97.475616 227.989822,101.145409 222.423019,101.993317 
	C217.206024,102.787964 211.040619,98.988434 210.103775,93.830811 
	C209.321564,89.524529 209.337524,85.073273 209.000000,80.220589 
z"/>
<path fill="#000000" opacity="1.000000" stroke="none" 
	d="
M673.742554,64.747108 
	C679.642761,59.283970 686.325073,60.152958 689.403015,66.996552 
	C693.511047,76.130486 693.050476,85.643875 689.960938,94.996994 
	C688.421204,99.658516 684.604553,102.211342 679.900269,101.845825 
	C675.321777,101.490089 672.227112,98.551422 670.900208,93.795067 
	C668.632629,85.666504 667.722107,77.607590 670.949158,69.548553 
	C671.586121,67.957710 672.619019,66.525360 673.742554,64.747108 
z"/>
<path fill="#000000" opacity="1.000000" stroke="none" 
	d="
M97.628975,73.836807 
	C97.720535,65.764999 106.060829,58.617294 112.807655,62.026089 
	C117.163803,64.226997 119.044968,68.286163 119.151680,72.738533 
	C119.321442,79.821564 119.386414,87.021751 118.287582,93.981659 
	C117.509018,98.913010 112.080643,102.245010 108.066910,101.998985 
	C103.888542,101.742874 98.865044,97.334427 98.215492,92.244446 
	C97.453529,86.273552 97.580055,80.189262 97.628975,73.836807 
z"/>
<path fill="#3D791B" opacity="1.000000" stroke="none" 
	d="
M36.999329,88.999084 
	C38.132210,88.659790 39.265091,88.320488 40.759140,87.962662 
	C41.462143,88.768257 41.803974,89.592377 41.996704,90.710968 
	C39.156151,91.667976 36.464706,92.330513 33.493168,92.738678 
	C33.474720,91.988861 33.736366,91.493423 33.998009,90.997986 
	C33.998009,90.997986 34.000000,91.000000 34.320587,90.974052 
	C35.427227,90.298431 36.213276,89.648758 36.999329,88.999084 
z"/>
<path fill="#20571A" opacity="1.000000" stroke="none" 
	d="
M37.346195,98.996422 
	C36.996593,98.244308 36.998909,97.496872 37.001373,96.375633 
	C37.469303,95.682365 37.937084,95.362892 38.825958,95.254166 
	C39.535469,95.656281 39.823887,95.847672 40.112305,96.039062 
	C39.971050,96.920570 39.829792,97.802078 39.397129,98.852798 
	C38.636517,99.015030 38.167316,99.008064 37.346195,98.996422 
z"/>
<path fill="#28611A" opacity="1.000000" stroke="none" 
	d="
M40.386604,95.895416 
	C39.823887,95.847672 39.535469,95.656281 39.123528,95.232758 
	C39.431061,94.677269 39.862125,94.353928 40.574738,93.997536 
	C40.791157,94.560242 40.726028,95.156006 40.386604,95.895416 
z"/>
<path fill="#43801B" opacity="1.000000" stroke="none" 
	d="
M33.633789,91.002319 
	C33.736366,91.493423 33.474720,91.988861 33.107773,92.744736 
	C32.214985,93.322533 31.427490,93.639893 30.320526,93.979843 
	C31.090557,93.003845 32.180061,92.005249 33.633789,91.002319 
z"/>
<path fill="#43801B" opacity="1.000000" stroke="none" 
	d="
M36.645420,89.004013 
	C36.213276,89.648758 35.427227,90.298431 34.319626,90.972832 
	C34.762554,90.334686 35.527035,89.671814 36.645420,89.004013 
z"/>
</svg>